<?xml version="1.0" encoding="utf-8"?>
<!-- Generator: Adobe Illustrator 23.1.1, SVG Export Plug-In . SVG Version: 6.00 Build 0)  -->
<svg version="1.1" id="레이어_1" xmlns="http://www.w3.org/2000/svg" xmlns:xlink="http://www.w3.org/1999/xlink" x="0px"
	 y="0px" viewBox="0 0 2186.95 595.28" style="enable-background:new 0 0 2186.95 595.28;" xml:space="preserve">
<style type="text/css">
	.st0{fill:none;}
	.st1{fill:#E83E41;}
</style>
<g>
	<path class="st0" d="M1323.77,272.76c-10.26-5.94-21.38-8.92-33.34-8.92c-11.61,0-22.65,2.97-33.08,8.92
		c-10.45,5.94-18.79,13.93-25.02,23.96c-6.23,9.85-9.35,20.72-9.35,32.62c0,18.17,6.74,33.81,20.21,46.89
		c13.3,13.09,29.05,19.63,47.23,19.63c18.35,0,34.19-6.54,47.49-19.63c13.47-13.08,20.2-28.71,20.2-46.89
		c0-11.9-3.12-22.77-9.33-32.62C1342.54,286.69,1334.22,278.7,1323.77,272.76z"/>
	<path class="st0" d="M965.84,272.24c-10.26-5.77-21.38-8.66-33.34-8.66c-11.61,0-22.65,2.89-33.08,8.66
		c-10.47,5.97-18.82,13.97-25.06,24.02c-5.91,9.53-9.17,20.72-9.3,31.94c-0.22,18.38,6.52,34.22,20.21,47.5
		c13.3,12.92,29.05,19.38,47.23,19.38c18.35,0,34.19-6.46,47.49-19.38c13.75-13.34,20.47-29.26,20.19-47.74
		c-0.17-11.24-3.47-22.44-9.45-31.96C984.51,286.07,976.22,278.16,965.84,272.24z"/>
	<path class="st0" d="M1672.29,272.76c-10.28-5.94-21.39-8.92-33.34-8.92c-11.62,0-22.65,2.97-33.09,8.92
		c-10.45,5.94-18.77,13.93-25,23.96c-6.23,9.85-9.35,20.72-9.35,32.62c0,18.17,6.73,33.81,20.21,46.89
		c13.3,13.09,29.05,19.63,47.23,19.63c18.35,0,34.18-6.54,47.48-19.63c13.47-13.08,20.21-28.71,20.21-46.89
		c0-11.9-3.12-22.77-9.35-32.62C1691.06,286.69,1682.72,278.7,1672.29,272.76z"/>
	<path class="st1" d="M75.72,520.1h437.92V74.58H75.72V520.1z M153.07,172.33c0-27.65,22.37-50.09,50.02-50.17l30.56-0.1v83.16
		l5.81-2.55l5.81-2.55c18.18-6.63,36.8-9.95,55.82-9.95c19.2,0,37.9,3.32,56.08,9.95c17.69,6.63,33.59,16.39,47.74,29.31
		c13.97,12.75,24.83,27.6,32.58,44.59c7.91,17.17,11.87,35.59,11.87,55.31c0,20.22-3.87,38.72-11.62,55.55
		c-7.75,16.81-18.69,31.78-32.83,44.85c-14.32,13.09-30.23,22.85-47.74,29.31c-17.69,6.96-36.38,10.45-56.08,10.45
		c-25.76,0-50.1-6.11-73-18.35c-22.91-12.06-41.09-28.71-54.56-49.95c-13.47-20.89-20.29-44.26-20.46-70.08V172.33z"/>
	<path class="st1" d="M301.09,395.85c18.35,0,34.19-6.54,47.49-19.63c13.47-13.08,20.2-28.71,20.2-46.89
		c0-11.9-3.12-22.77-9.33-32.62c-6.24-10.02-14.57-18.01-25.02-23.96c-10.26-5.94-21.38-8.92-33.34-8.92
		c-11.61,0-22.65,2.97-33.08,8.92c-10.45,5.94-18.79,13.93-25.02,23.96c-6.23,9.85-9.35,20.72-9.35,32.62
		c0,18.17,6.74,33.81,20.21,46.89C267.15,389.31,282.9,395.85,301.09,395.85z"/>
	<path class="st1" d="M1036.06,229.17c-13.47-12.56-29.3-22.25-47.48-29.04c-18.18-6.8-36.88-10.2-56.08-10.2
		c-19.36,0-38.06,3.49-56.07,10.45c-18.03,6.63-33.85,16.23-47.49,28.79c-13.81,12.59-24.66,27.37-32.58,44.35
		c-7.92,17.16-11.87,35.67-11.87,55.55c0,26.34,6.82,50.2,20.46,71.61c13.47,21.07,31.65,37.72,54.56,49.95
		c22.9,12.06,47.23,18.09,73,18.09c19.53,0,38.23-3.49,56.08-10.45c2.53-0.85,6.48-2.46,11.87-4.85v16.06h29.85
		c27.75,0,50.25-22.47,50.31-50.21l0.17-90.21c0-19.88-3.97-38.39-11.87-55.55C1061.16,256.87,1050.21,242.09,1036.06,229.17z
		 M979.99,375.71c-13.3,12.92-29.14,19.38-47.49,19.38c-18.18,0-33.93-6.46-47.23-19.38c-13.69-13.28-20.43-29.12-20.21-47.5
		c0.13-11.22,3.39-22.41,9.3-31.94c6.24-10.05,14.59-18.05,25.06-24.02c10.43-5.77,21.47-8.66,33.08-8.66
		c11.97,0,23.08,2.89,33.34,8.66c10.38,5.92,18.66,13.83,24.89,23.76c5.97,9.52,9.28,20.72,9.45,31.96
		C1000.47,346.45,993.74,362.37,979.99,375.71z"/>
	<path class="st1" d="M1394.25,229.44c-14.15-12.92-30.06-22.68-47.74-29.31c-18.18-6.63-36.88-9.95-56.08-9.95
		c-19.02,0-37.64,3.32-55.82,9.95l-5.81,2.55l-5.81,2.55v-83.16l-30.42,0.09c-27.73,0.09-50.16,22.59-50.16,50.32v158.65
		c0.17,25.82,6.99,49.18,20.46,70.08c13.47,21.24,31.65,37.89,54.56,49.95c22.9,12.23,47.23,18.35,73,18.35
		c19.7,0,38.4-3.49,56.08-10.45c17.52-6.46,33.42-16.22,47.74-29.31c14.14-13.08,25.08-28.04,32.83-44.85
		c7.75-16.83,11.62-35.33,11.62-55.55c0-19.72-3.97-38.14-11.87-55.31C1419.09,257.04,1408.22,242.18,1394.25,229.44z
		 M1337.92,376.22c-13.3,13.09-29.14,19.63-47.49,19.63c-18.18,0-33.93-6.54-47.23-19.63c-13.47-13.08-20.21-28.71-20.21-46.89
		c0-11.9,3.12-22.77,9.35-32.62c6.23-10.02,14.57-18.01,25.02-23.96c10.43-5.94,21.47-8.92,33.08-8.92
		c11.97,0,23.08,2.97,33.34,8.92c10.45,5.94,18.77,13.93,25.02,23.96c6.22,9.85,9.33,20.72,9.33,32.62
		C1358.12,347.51,1351.39,363.15,1337.92,376.22z"/>
	<path class="st1" d="M1742.76,229.44c-14.14-12.92-30.06-22.68-47.74-29.31c-18.18-6.63-36.88-9.95-56.07-9.95
		c-19.03,0-37.64,3.32-55.82,9.95l-5.81,2.55l-5.81,2.55v-83.16l-30.42,0.09c-27.73,0.09-50.16,22.59-50.16,50.31v158.65
		c0.16,25.82,6.98,49.18,20.46,70.08c13.47,21.24,31.65,37.89,54.55,49.95c22.91,12.23,47.25,18.35,73.01,18.35
		c19.7,0,38.4-3.49,56.07-10.45c17.52-6.46,33.43-16.22,47.74-29.31c14.15-13.08,25.1-28.04,32.85-44.85
		c7.74-16.83,11.61-35.33,11.61-55.55c0-19.72-3.95-38.14-11.87-55.31C1767.59,257.04,1756.74,242.18,1742.76,229.44z
		 M1686.43,376.22c-13.3,13.09-29.13,19.63-47.48,19.63c-18.18,0-33.93-6.54-47.23-19.63c-13.48-13.08-20.21-28.71-20.21-46.89
		c0-11.9,3.12-22.77,9.35-32.62c6.23-10.02,14.56-18.01,25-23.96c10.45-5.94,21.47-8.92,33.09-8.92c11.95,0,23.07,2.97,33.34,8.92
		c10.43,5.94,18.77,13.93,25,23.96c6.23,9.85,9.35,20.72,9.35,32.62C1706.64,347.51,1699.9,363.15,1686.43,376.22z"/>
	<path class="st1" d="M1848.75,419.36c0,27.69,22.44,50.13,50.13,50.13h31.18V238.27l-81.3,0.25V419.36z"/>
	<path class="st1" d="M1909.41,127.42c-6.46-3.74-13.6-5.61-21.41-5.61c-7.82,0-14.87,1.88-21.16,5.61
		c-6.29,3.74-11.46,8.92-15.55,15.55c-3.74,6.46-5.6,13.59-5.6,21.4c0,7.65,1.94,14.87,5.86,21.67c3.72,6.46,8.82,11.64,15.28,15.55
		c6.29,3.74,13.34,5.6,21.16,5.6c7.81,0,14.95-1.95,21.41-5.86c6.45-3.9,11.54-8.99,15.28-15.28c3.74-6.29,5.61-13.51,5.61-21.67
		c0-7.81-1.88-14.94-5.61-21.4C1920.78,136.33,1915.68,131.16,1909.41,127.42z"/>
	<path class="st1" d="M2116.4,390.75c-3.86,0-7.43-0.24-10.77-0.66c-21.67-2.68-32.55-13.99-32.55-34v-89.55h46.07v-73.97h-46.07
		v-70.25l-81.29-0.52v78.07h-0.24l0.24,69.81v92.77c0,24.3,4.16,44.26,12.48,59.88c6.63,12.6,15.93,22.55,27.64,30.07
		c2.98,1.91,6.01,3.77,9.31,5.35c16.14,7.82,36.35,11.73,60.65,11.73h39.16v-78.74H2116.4z"/>
	<path class="st1" d="M624.79,227.66c-3.31,1.58-6.33,3.44-9.31,5.35c-11.71,7.52-21.01,17.46-27.64,30.07
		c-8.32,15.62-12.48,35.58-12.48,59.88v96.36c0,27.71,22.46,50.17,50.17,50.17h31.12V329.33c0-20.01,10.88-31.32,32.54-34
		c3.35-0.41,6.91-0.66,10.78-0.66h26.58c1.57-13.95,5.17-27.2,10.95-39.7c6.84-14.67,15.96-27.64,27.19-39.04l-79.24,0
		C661.13,215.93,640.93,219.84,624.79,227.66z"/>
</g>
</svg>
